<?xml version="1.0" encoding="utf-8"?>
<!-- Generator: Adobe Illustrator 24.3.0, SVG Export Plug-In . SVG Version: 6.00 Build 0)  -->
<svg version="1.1" id="Layer_1" xmlns="http://www.w3.org/2000/svg" xmlns:xlink="http://www.w3.org/1999/xlink" x="0px" y="0px"
	 viewBox="0 0 512 512" style="enable-background:new 0 0 512 512;" xml:space="preserve">
<style type="text/css">
	.st0{fill:#0566B0;}
</style>
<g id="XMLID_1_">
	<polygon id="XMLID_7_" points="0.68,371.05 14.15,371.05 14.15,374.7 5.73,374.7 5.73,378.63 13.59,378.63 13.59,382.27 
		5.73,382.27 5.73,386.76 14.43,386.76 14.43,390.41 0.68,390.41 	"/>
	<polygon id="XMLID_8_" points="0.68,371.05 0.68,371.47 13.73,371.47 13.73,374.42 5.45,374.42 5.45,378.91 13.31,378.91 
		13.31,381.99 5.45,381.99 5.45,387.04 14.01,387.04 14.01,390.13 0.96,390.13 0.96,371.05 0.68,371.05 0.68,371.47 0.68,371.05 
		0.26,371.05 0.26,390.83 14.71,390.83 14.71,386.34 6.15,386.34 6.15,382.69 14.01,382.69 14.01,378.35 6.15,378.35 6.15,374.98 
		14.43,374.98 14.43,370.77 0.26,370.77 0.26,371.05 	"/>
	<polygon id="XMLID_9_" points="476.1,371.05 490.83,371.05 490.83,374.98 486.06,374.98 486.06,390.41 480.87,390.41 
		480.87,374.98 476.1,374.98 	"/>
	<polygon id="XMLID_18_" points="476.1,371.05 476.1,371.47 490.55,371.47 490.55,374.7 485.78,374.7 485.78,390.13 481.29,390.13 
		481.29,374.7 476.38,374.7 476.38,371.05 476.1,371.05 476.1,371.47 476.1,371.05 475.82,371.05 475.82,375.26 480.59,375.26 
		480.59,390.83 486.34,390.83 486.34,375.26 491.25,375.26 491.25,370.77 475.82,370.77 475.82,371.05 	"/>
	<path id="XMLID_19_" d="M432.33,371.05h6.45l5.61,11.64c0.14,0.42,0.42,0.98,0.7,1.68s0.56,1.54,0.84,2.53
		c-0.14-0.98-0.28-1.82-0.42-2.67c-0.14-0.84-0.14-1.54-0.14-2.24v-10.94h4.63v19.36h-6.45l-5.89-12.06
		c-0.28-0.56-0.56-1.12-0.7-1.82c-0.28-0.7-0.42-1.4-0.56-2.1c0.14,1.12,0.28,2.24,0.42,3.23c0.14,0.98,0.14,1.82,0.14,2.53v10.24
		h-4.63V371.05L432.33,371.05z"/>
	<path id="XMLID_20_" d="M432.33,371.05v0.28h6.31l5.47,11.36c0.14,0.42,0.42,0.84,0.7,1.54s0.56,1.54,0.84,2.53l0.56-0.14
		c-0.14-0.98-0.28-1.82-0.42-2.67c-0.14-0.84-0.14-1.54-0.14-2.1v-10.66h4.07v18.66h-5.89l-5.75-11.78l0,0
		c-0.28-0.56-0.56-1.12-0.7-1.82l0,0c-0.28-0.7-0.42-1.4-0.56-2.1l-0.7,0.14c0.14,1.12,0.28,2.24,0.42,3.23
		c0.14,0.98,0.14,1.82,0.14,2.53v9.96h-4.07v-19.08h-0.7l0,0v0.28h0.28v-0.14h0.28l0,0h-0.7v19.64h5.33v-10.52
		c0-0.7,0-1.68-0.14-2.53c-0.14-0.98-0.28-2.1-0.42-3.23h-0.28l-0.28,0.14c0.14,0.7,0.42,1.54,0.7,2.1l0,0l0,0
		c0.28,0.7,0.42,1.26,0.7,1.82l0.28-0.14l-0.28,0.14l5.89,12.2h7.01v-20.06h-5.33v11.22c0,0.7,0,1.4,0.14,2.24s0.14,1.68,0.42,2.67
		h0.28l0.28-0.14c-0.28-0.98-0.56-1.82-0.84-2.53s-0.42-1.26-0.7-1.68l-5.75-11.78h-6.59v0.42h0.28H432.33z"/>
	<polygon id="XMLID_21_" points="394.73,371.05 408.2,371.05 408.2,374.7 399.93,374.7 399.93,378.63 407.78,378.63 407.78,382.27 
		399.93,382.27 399.93,386.76 408.48,386.76 408.48,390.41 394.73,390.41 	"/>
	<polygon id="XMLID_22_" points="394.73,371.05 394.73,371.47 407.92,371.47 407.92,374.42 399.64,374.42 399.64,378.91 
		407.36,378.91 407.36,381.99 399.64,381.99 399.64,387.04 408.2,387.04 408.2,390.13 395.16,390.13 395.16,371.05 394.73,371.05 
		394.73,371.47 394.73,371.05 394.45,371.05 394.45,390.83 408.9,390.83 408.9,386.34 400.21,386.34 400.21,382.69 408.06,382.69 
		408.06,378.35 400.21,378.35 400.21,374.98 408.48,374.98 408.48,370.77 394.45,370.77 394.45,371.05 	"/>
	<path id="XMLID_23_" d="M348.02,371.05h7.43l3.37,11.64c0.14,0.42,0.28,0.98,0.28,1.54c0.14,0.56,0.14,1.26,0.14,1.82
		c0-0.7,0.14-1.4,0.28-1.96s0.14-1.12,0.28-1.54l3.37-11.5h7.43v19.36h-4.63v-13.05c0-0.56,0-1.26,0-1.96s0.14-1.4,0.14-2.1
		c-0.14,0.56-0.28,1.12-0.42,1.68c-0.14,0.56-0.28,0.98-0.42,1.54l-4.21,13.89H357l-4.07-13.61c-0.14-0.42-0.28-0.98-0.42-1.54
		c-0.14-0.56-0.28-1.12-0.42-1.82c0,0.98,0.14,1.68,0.14,2.53c0,0.7,0,1.26,0,1.68v12.91h-4.35v-19.5H348.02z"/>
	<path id="XMLID_24_" d="M348.02,371.05v0.28h7.29l3.37,11.36c0.14,0.42,0.28,0.98,0.28,1.54c0.14,0.56,0.14,1.12,0.14,1.82h0.7
		c0-0.7,0.14-1.4,0.28-1.96h-0.28h0.28c0.14-0.56,0.14-1.12,0.28-1.54l-0.28-0.14l0.28,0.14l3.37-11.22h6.87v18.66h-3.93v-12.63
		c0-0.56,0-1.26,0-1.96s0.14-1.4,0.14-2.1l-0.7-0.14c-0.14,0.56-0.28,1.12-0.42,1.68c-0.14,0.56-0.28,0.98-0.42,1.54l-4.07,13.61
		h-3.93l-3.93-13.47c-0.14-0.42-0.28-0.98-0.42-1.54c-0.14-0.56-0.28-1.12-0.42-1.82l-0.7,0.14c0,0.98,0.14,1.68,0.14,2.53
		c0,0.7,0,1.26,0,1.68v12.63h-3.65v-19.08h-0.7l0,0v0.28h0.28v-0.28h0.28l0,0h-0.7v19.64h4.91V377.5c0-0.42,0-0.98,0-1.68
		s-0.14-1.54-0.14-2.53h-0.28h-0.28c0.14,0.7,0.28,1.26,0.42,1.82c0.14,0.56,0.28,1.12,0.42,1.54l4.07,13.89h4.91l4.21-14.17
		l-0.28-0.14l0.28,0.14c0.14-0.42,0.28-0.98,0.42-1.54c0.14-0.56,0.28-1.12,0.42-1.68h-0.28h-0.28c0,0.7-0.14,1.4-0.14,2.1
		c0,0.7,0,1.26,0,1.96v13.33h5.33v-20.06h-8l-3.51,11.78l0,0c-0.14,0.42-0.28,0.98-0.28,1.54l0,0c-0.14,0.56-0.14,1.26-0.28,1.96
		h0.28h0.28c0-0.7-0.14-1.26-0.14-1.82c-0.14-0.56-0.14-1.12-0.28-1.54l-3.37-11.92h-7.72v0.56h0.28H348.02z"/>
	<path id="XMLID_25_" d="M306.08,371.05h6.45l5.61,11.64c0.14,0.42,0.42,0.98,0.7,1.68s0.56,1.54,0.84,2.53
		c-0.14-0.98-0.28-1.82-0.42-2.67c-0.14-0.84-0.14-1.54-0.14-2.24v-10.94h4.63v19.36h-6.45l-5.89-12.06
		c-0.28-0.56-0.56-1.12-0.7-1.82c-0.28-0.7-0.42-1.4-0.56-2.1c0.14,1.12,0.28,2.24,0.42,3.23c0.14,0.98,0.14,1.82,0.14,2.53v10.24
		h-4.63V371.05L306.08,371.05z"/>
	<path id="XMLID_26_" d="M306.08,371.05v0.28h6.31l5.47,11.36c0.14,0.42,0.42,0.84,0.7,1.54s0.56,1.54,0.84,2.53l0.56-0.14
		c-0.14-0.98-0.28-1.82-0.42-2.67c-0.14-0.84-0.14-1.54-0.14-2.1v-10.66h4.07v18.66h-5.75l-5.75-11.78
		c-0.28-0.56-0.56-1.12-0.7-1.82c-0.28-0.7-0.42-1.4-0.56-2.1l-0.7,0.14c0.14,1.12,0.28,2.24,0.42,3.23
		c0.14,0.98,0.14,1.82,0.14,2.53v9.96h-4.07v-18.94h-0.7l0,0v0.28h0.28V371.05h0.28l0,0h-0.7v19.64h5.33v-10.52
		c0-0.7,0-1.68-0.14-2.53c-0.14-0.98-0.28-2.1-0.42-3.23h-0.28l-0.28,0.14c0.14,0.7,0.42,1.54,0.7,2.1c0.28,0.7,0.56,1.26,0.7,1.82
		l5.89,12.2h7.01v-20.06h-5.33v11.22c0,0.7,0,1.4,0.14,2.24s0.14,1.68,0.42,2.67h0.28l0.28-0.14c-0.28-0.98-0.56-1.82-0.84-2.53
		s-0.42-1.26-0.7-1.68l-5.75-11.78h-6.59V371.05h0.28H306.08z"/>
	<rect id="XMLID_27_" x="275.92" y="371.05" width="5.19" height="19.36"/>
	<polygon id="XMLID_28_" points="275.92,371.05 275.92,371.47 280.69,371.47 280.69,390.13 276.2,390.13 276.2,371.05 
		275.92,371.05 275.92,371.47 275.92,371.05 275.49,371.05 275.49,390.83 281.39,390.83 281.39,370.77 275.49,370.77 275.49,371.05 
			"/>
	<polygon id="XMLID_29_" points="237.9,390.69 238.32,390.69 239.72,386.48 239.3,386.48 	"/>
	<polygon id="XMLID_30_" points="240.14,371.05 240,371.05 232.43,390.69 233.41,390.69 240.56,371.05 	"/>
	<polygon id="XMLID_31_" points="246.74,386.48 248.14,390.69 248.56,390.69 247.16,386.48 	"/>
	<polygon id="XMLID_32_" points="246.74,371.05 246.32,371.05 253.33,390.69 254.31,390.69 	"/>
	<path id="XMLID_35_" d="M246.6,371.05h-6.17l-7.29,19.64h5.05l1.4-4.21h7.43l1.4,4.21h5.47L246.6,371.05z M240.42,383.68l2.67-7.86
		l0.28-1.12l2.81,8.98H240.42z"/>
	<polygon id="XMLID_36_" points="197.92,371.05 212.65,371.05 212.65,374.98 207.88,374.98 207.88,390.41 202.69,390.41 
		202.69,374.98 197.92,374.98 	"/>
	<polygon id="XMLID_37_" points="197.92,371.05 197.92,371.47 212.37,371.47 212.37,374.7 207.6,374.7 207.6,390.13 203.11,390.13 
		203.11,374.7 198.34,374.7 198.34,371.05 197.92,371.05 197.92,371.47 197.92,371.05 197.64,371.05 197.64,375.26 202.41,375.26 
		202.41,390.83 208.3,390.83 208.3,375.26 213.07,375.26 213.07,370.77 197.64,370.77 197.64,371.05 	"/>
	<path id="XMLID_40_" d="M174.63,384.1L174.63,384.1c-1.4-1.82-1.68-2.81-2.67-3.23c1.26-0.28,2.1-0.84,2.67-1.68
		c0.7-0.84,0.98-1.82,0.98-3.09c0-1.68-0.7-2.95-1.82-3.79c-1.26-0.84-3.23-1.26-5.75-1.26h-7.72h0.28v19.64h4.21v-8.42h1.26
		c0.98,0,1.68,0.42,2.24,0.84c0.42,0.28,0.84,1.26,1.12,2.1l1.68,5.61h5.33L174.63,384.1z M169.72,378.91
		c-0.56,0.42-1.4,0.56-2.53,0.56h-2.38v-4.91l0.56-0.7h1.26c1.4,0,2.38,0.56,2.95,0.98c0.56,0.42,0.98,1.26,0.98,2.1
		C170.56,377.64,170.28,378.49,169.72,378.91z"/>
	<path id="XMLID_41_" d="M169.72,374.84L169.72,374.84L169.72,374.84z"/>
	<polygon id="XMLID_42_" points="121.89,371.05 135.35,371.05 135.35,374.7 127.08,374.7 127.08,378.63 134.79,378.63 
		134.79,382.27 127.08,382.27 127.08,386.76 135.63,386.76 135.63,390.41 121.89,390.41 	"/>
	<polygon id="XMLID_43_" points="121.89,371.05 121.89,371.47 134.93,371.47 134.93,374.42 126.66,374.42 126.66,378.91 
		134.51,378.91 134.51,381.99 126.66,381.99 126.66,387.04 135.35,387.04 135.35,390.13 122.17,390.13 122.17,370.77 121.89,370.77 
		121.89,371.47 121.89,371.05 121.89,371.47 121.89,371.47 121.89,371.05 121.61,371.05 121.61,390.83 135.91,390.83 135.91,386.34 
		127.36,386.34 127.36,382.69 135.21,382.69 135.21,378.35 127.36,378.35 127.36,374.98 135.63,374.98 135.63,370.77 121.89,370.77 
		121.89,371.47 	"/>
	<polygon id="XMLID_44_" points="83.03,371.05 97.76,371.05 97.76,374.98 92.99,374.98 92.99,390.41 87.8,390.41 87.8,374.98 
		83.03,374.98 	"/>
	<polygon id="XMLID_45_" points="83.03,371.05 83.03,371.47 97.48,371.47 97.48,374.7 92.57,374.7 92.57,390.13 88.08,390.13 
		88.08,374.7 83.31,374.7 83.31,370.77 83.03,370.77 83.03,371.47 83.03,371.05 83.03,371.47 83.03,371.47 83.03,371.05 
		82.61,371.05 82.61,375.26 87.52,375.26 87.52,390.83 93.27,390.83 93.27,375.26 98.04,375.26 98.04,370.77 83.03,370.77 
		83.03,371.47 	"/>
	<path id="XMLID_46_" d="M39.12,371.05h6.45l5.61,11.64c0.14,0.42,0.42,0.98,0.7,1.68s0.56,1.54,0.84,2.53
		c-0.14-0.98-0.28-1.82-0.42-2.67c-0.14-0.84-0.14-1.54-0.14-2.24v-10.94h4.63v19.36h-6.45l-5.89-12.06
		c-0.28-0.56-0.56-1.12-0.7-1.82c-0.28-0.7-0.42-1.4-0.56-2.1c0.14,1.12,0.28,2.24,0.42,3.23c0.14,0.98,0.14,1.82,0.14,2.53v10.24
		h-4.63V371.05L39.12,371.05z"/>
	<path id="XMLID_61_" d="M39.12,371.05v0.28h6.31l5.47,11.36l0,0c0.14,0.42,0.42,0.84,0.7,1.54s0.56,1.54,0.84,2.53l0.56-0.14
		c-0.14-0.98-0.28-1.82-0.42-2.67c-0.14-0.84-0.14-1.54-0.14-2.1v-10.66h4.07v18.66h-5.89l-5.75-11.78l0,0
		c-0.28-0.56-0.56-1.12-0.7-1.82l0,0c-0.28-0.7-0.42-1.4-0.56-2.1l-0.7,0.14c0.14,1.12,0.28,2.24,0.42,3.23
		c0.14,0.98,0.14,1.82,0.14,2.53v9.96H39.4v-18.94h-0.7l0,0v0.28h0.28v-0.28h0.28l0,0h-0.7v19.64h5.33v-10.52
		c0-0.7,0-1.68-0.14-2.53c-0.14-0.98-0.28-2.1-0.42-3.23h-0.28l-0.28,0.14c0.14,0.7,0.42,1.54,0.7,2.1l0,0
		c0.28,0.7,0.42,1.26,0.7,1.82l0.28-0.14l-0.28,0.14l5.89,12.2h7.01v-20.06h-5.33v11.22c0,0.7,0,1.4,0.14,2.24
		c0.14,0.84,0.14,1.68,0.42,2.67h0.28l0.28-0.14c-0.28-0.98-0.56-1.82-0.84-2.53s-0.42-1.26-0.7-1.68l0,0l-5.75-11.78h-6.59v0.42
		h0.28H39.12z"/>
	<path id="XMLID_62_" class="st0" d="M130.3,311.99c0,0,0.98,4.63,3.65,2.95c2.53-1.68,3.65-4.35,6.17-4.35
		c2.53,0,13.33-1.96,15.99,0c2.53,1.96,2.81,0.28,4.21,0.28c1.26,0,5.05,0.7,5.05,0.7c3.37-0.28,2.67-5.61,0.28-7.15
		c-3.51-2.67-8.14-4.49-11.5-7.15c-0.28-2.67-0.7-5.19-0.98-7.86c0.98-1.4,1.96-2.67,2.81-4.07c0-4.35,0-8.7,0-13.05
		c-0.56-1.12-0.98-2.38-1.54-3.51c-0.14-3.23-0.28-6.59-0.56-9.82c-0.42-0.56-0.84-1.12-1.26-1.68c0-1.26,0-2.53,0-3.79
		c0.84-1.26,2.67-2.53,3.51-3.79c0.28-2.38-0.84-4.07-0.7-6.59c-0.56-3.09-0.7-6.87-1.26-9.96c0-3.79,0-7.58,0-11.36
		c2.53-0.7,3.09-1.82,3.23-2.95c0.28-1.4-0.42-3.09-1.26-6.59c-0.28-18.1-0.56-36.89-0.84-54.99c1.4-2.1,3.09-3.23,3.09-4.91
		c0-1.26-1.26-2.24-2.95-3.65c0-1.26,0-2.53,0-3.79c0,0,2.81-5.75,5.19-5.75s3.93-1.68,3.93-3.51c2.1-4.21-2.38-4.63-2.38-4.63
		c-4.91-0.14-10.52,0.14-15.29,0c-4.21-0.14-7.72-0.56-11.92-0.56c-1.82,0.14-3.65,0.14-5.47,0.28c-4.49,1.4-3.51,3.79-1.82,5.19
		c2.1,1.26,3.79,2.81,6.17,2.81c2.95,0,5.19,0.98,6.17,3.93c0.28,11.64,0.56,23.15,0.84,34.79c0.14,8.56,0.28,17.11,0.42,25.67
		c0.14,8.56,0,17.11,0.14,25.67c0.14,10.1,0.28,20.06,0.56,30.16c0,0-0.56,3.79-1.26,4.63c-0.84,0.84-0.56,8.42-0.56,8.42
		c2.81,2.53,2.24,2.1,0.28,5.47c-0.14,7.43-0.28,14.87-0.56,22.3c-0.7,1.4-1.4,2.67-2.1,4.07
		C137.74,303.86,130.3,308.21,130.3,311.99L130.3,311.99z"/>
	<path id="XMLID_98_" class="st0" d="M86.53,279.31c0.14-5.47-0.14-11.22-0.14-16.83c0-5.33,0.14-10.66-0.28-15.71
		c-0.42-2.38-4.07-2.38-4.49-4.77c-1.26-7.29,1.96-14.87,0.56-22.16c-0.56-2.81-5.33-3.09-6.17-5.75c-0.98-3.09,2.1-6.31,0.42-8.98
		c-1.68-2.81-10.1-0.42-9.26-3.65c0.84-3.09,4.07-5.61,5.89-8.42c3.23-4.77,6.17-9.26,8.7-14.03c1.82-3.51,3.09-7.15,3.09-11.22
		c0-4.91-0.98-12.06-1.54-18.38c-0.42-5.19-2.95-8.28-6.45-11.92c-2.24-2.38-6.31-2.1-9.12-3.37c-2.1-0.98-2.81-5.05-5.05-5.19
		c-14.17-1.4-28.9,0-43.21,0.7c-1.82,0.14-2.95,1.12-4.77,1.4c-3.37,0.56-9.12-0.98-12.06,0.56c-1.82,0.98-3.23,5.19-2.38,7.15
		c2.24,4.91,7.15,7.29,11.08,10.94c0.7,0.56,2.81-0.42,3.23,0.42c0.7,1.4,0.56,3.23,0,4.77c-0.42,1.12-2.53,1.4-2.53,2.67
		c0.42,13.89-0.14,27.92-0.42,41.8c-0.14,5.75,1.68,2.38,2.95,5.33c0.7,1.82,0.56,3.93,0,5.75c-1.54,4.91-1.96,4.91-1.68,10.24
		c0.14,3.65-0.28,10.1,1.12,11.78c0.98,1.68,0,3.93,0,5.33c0,3.51-0.42,3.79-1.54,5.75c0,4.21-0.98,37.6,0,47.56
		c1.68,6.45,1.12,25.81-0.56,40.4c-1.82,3.51-0.84,7.72-2.38,9.54c-0.84,1.12-2.38,1.96-3.79,2.67c-0.98,0.42-3.23,0.84-3.93,1.4
		c-1.4,1.12-0.7,2.53,3.23,4.07l0,0c6.45,0,16.69-0.7,22.02-0.14c5.19,0.42,1.82,1.26,6.31-2.38c0.7-0.7,2.24-0.7,3.09-0.14
		c1.4,1.12,0.84,2.53,2.53,2.81c2.24,0.28,2.38-1.54,4.49-2.24c2.24-0.84,6.17,0.28,8-1.4c1.4-0.14,4.35-4.07,9.12-7.58
		c3.23-2.38,8.28-5.19,12.34-6.45c2.38-2.95,1.96-9.82,3.51-14.59c1.82-5.47,6.31-9.4,7.58-15.01c1.26-5.33-0.7-11.36,0-16.83
		C83.73,282.53,86.39,281.41,86.53,279.31z M42.07,154.18c0-2.53,1.96-2.38,4.35-2.81c2.38,0.14,6.87-0.14,7.43,1.12
		c0.42,1.26,0.42,3.09,4.63,2.53c4.21-0.42,2.95,2.38,1.26,4.07c-1.68,1.68-0.7,2.95,0.42,4.21c1.12,1.26,0.84,4.35-0.14,5.47
		s0.14,4.91,0.7,8.98c0.56,4.07-1.12,4.35-1.12,4.35s-1.68,0.42-4.77,0.98c-1.82,0.28-4.07,3.93-5.61,6.87
		c-1.12,2.24-1.68,3.23-2.38,3.51c-0.84,0.28-1.96,0.14-4.49,0l0,0c0,0-0.28-22.3-0.42-23.57C41.78,168.62,42.21,156.7,42.07,154.18
		z M61.14,276.08c0.98,3.51,0.84,5.75,0,9.26c-0.98,4.21-2.1,8.28-3.09,12.49c-0.14,3.09-0.42,6.31-0.56,9.4
		c-0.28,4.77-0.98,4.91-4.35,8.28c-3.09,3.09-6.87,5.75-9.82,8.56c-3.23,1.26-5.75,1.4-8.98,2.53l0,0l0,0l0,0
		c1.12-2.24,2.38-4.63,3.51-6.87c-0.28-7.58-0.84-15.15-1.12-22.73c0.98-1.4,1.4-2.81,2.95-4.21c0-7.58,0-15.29,0-22.87
		c0-3.51-0.42-6.87-0.42-10.38c-3.65-2.95-1.82-2.95,1.12-6.31c0-3.37,0.84-6.03,0.84-9.4c-0.28-2.81-0.7-5.61-0.98-8.42
		c0.56-1.4,0.98-2.81,1.54-4.21c0-4.21,0.42-7.72,0.42-11.92c0-3.93,0.14-5.33,0.84-5.05c0.7,0.28,2.1,2.1,4.49,4.49
		c1.82,1.82,3.65,3.51,5.61,5.33c3.37,3.37,6.73,3.65,5.33,8.98c-1.26,5.05,2.38,6.45,1.26,11.5c-0.84,3.79-2.1,6.17-1.82,8.56
		c0.14,1.4,0.84,2.81,2.38,4.63c1.4,1.68,1.96,1.54,0.98,3.51c-1.26,3.09-2.38,4.91-2.53,6.87
		C58.76,270.75,60.02,271.87,61.14,276.08z"/>
	<path id="XMLID_99_" class="st0" d="M174.07,302.31c-0.14,1.12-2.67,1.12-2.38,2.1c0.28,1.54,0.42,3.79,1.82,3.93
		c4.35,0.56,10.24-1.12,14.45-0.42c1.68,0.28,1.82,3.23,3.37,3.93c1.26,0,3.23,0,4.91,0c1.26-0.7,0.84-2.95,2.1-3.65
		c1.54-0.84,3.51-1.26,5.19-0.56c0.84,0.28-0.28,2.67,0.56,2.67c7.58-0.28,14.31,0.56,21.46,0c1.4-0.28,0-2.24,1.12-3.09
		c1.26-0.98,4.63,0.7,4.91-0.84c1.12-8.42-0.7-17.82,0.14-26.23c0.28-2.67,2.81-4.35,3.37-7.01c0.14-0.84,1.26-0.84,1.4-1.82
		c0.28-3.09,0.28-6.73-0.56-9.68c-0.98-0.98-4.07-1.4-5.19-0.98c-1.12,0.84-0.14,3.79-0.84,5.05c-0.42,0.56-1.68-0.56-2.1,0
		s0.14,1.54,0.28,2.24c0.14,0.42,0.14,0.84-0.28,0.98c-1.96,0.98-4.91-1.4-6.59,0c-1.68,1.4,0.28,3.93-1.26,5.61
		c-2.38,2.67-7.43,4.21-9.82,6.73c-2.81,3.09-2.53,6.31-5.75,8.98c-2.53,2.1-6.73,2.38-9.82,3.51c-3.51,1.4-5.19,4.07-8.84,5.05
		c-1.12,0.28-2.53-1.68-2.1-2.67c2.81-8.84,6.31-17.82,9.26-26.65c1.96-5.61,2.81-9.26,4.91-14.87c2.1-5.75,4.91-13.05,8.42-18.1
		c0.7-0.98,2.95-0.28,3.37-1.54c0.84-2.95-0.84-6.17,0-9.12c0.56-2.1,2.81-4.21,4.77-5.47c1.26-0.84,3.37,0.28,3.93-1.12
		c1.26-3.23,0.14-6.73,0.98-10.24c0.56-2.24,2.1-3.79,3.09-5.89c1.4-2.81,1.26-5.33,2.67-8.14c1.26-2.24,3.79-5.47,4.49-7.86
		c0.98-3.37,0.14-5.05,0.56-8.56c0.14-0.98,1.54-1.4,1.54-2.38c0.42-11.36,1.12-22.87,0.42-34.23c0-0.98-2.1-0.84-2.1-1.82
		c0.14-3.51,0.56-6.59,0.28-9.68c0-0.56,0.14-1.12-0.42-1.12c-9.54-0.42-18.8-0.14-28.34-0.14c-7.72,0.14-15.57-0.56-23.29,0
		c-1.12,0.14-2.24,0.28-3.09,1.12c-0.7,0.84-1.12,2.53-1.12,3.65c0.14,5.05-0.14,10.52,0,16.69c0,1.12,2.24,0.42,2.67,1.54
		c1.12,2.95,1.12,6.31,0.84,9.4c-0.14,0.98-1.26,2.38-1.26,3.37c0.42,3.51,0.98,6.03,1.54,9.4c0.42,1.26,1.54,2.38,1.82,3.65
		c0.42,1.54-0.98,4.77,0.56,4.91c0.56,0,2.38,0.28,3.37,0c1.26-0.42-0.42-2.67,0-3.93c0.28-0.84,1.96-0.84,2.1-1.82
		c0.84-5.05-0.56-10.8,0.14-15.85c0.28-1.54,1.12-3.09,2.38-3.93c1.12-0.7,3.09,0.98,3.93,0c1.12-1.4,0-3.09,0.7-4.77
		c0.98-2.38,2.53-4.63,4.49-6.31c1.82-1.54,3.51-3.51,5.89-3.79c5.33-0.56,11.64,0,18.8-0.42c0.7,0,0.84,0.98,0.84,1.68
		c0.28,3.37,0.84,7.86,0,9.96c-1.26,3.09-4.07,6.59-6.87,9.82c-1.96,2.24-3.93,4.21-5.47,6.45c-1.82,2.67,0.84,6.31,0,9.4
		c-0.98,3.23-3.51,6.59-5.61,9.12c-1.68,2.1-4.07,3.23-5.61,5.47c-1.96,2.81-3.09,5.47-4.21,8.7c-0.98,2.67-1.68,5.33-2.1,8.14
		c-0.42,2.24,0.7,4.63-0.28,6.59c-0.7,1.4-2.38,1.12-3.37,2.38c-1.4,1.68-2.38,3.93-3.09,6.03c-0.84,2.53-0.84,4.07-2.24,6.31
		c-1.4,2.67-4.35,5.19-5.61,7.86c-1.4,2.95-1.54,6.45-2.38,9.68c-0.7,3.09-1.26,6.03-1.96,9.12c-0.84,3.79-1.54,7.58-1.54,11.5
		c0,1.12,1.26,1.96,1.82,3.09c0.42,0.84,1.54,1.82,1.26,2.67c-0.42,1.26-2.81,1.4-3.09,2.67c-0.14,1.4,0.14,2.67,1.12,3.65
		c0.84,0.84,2.67,0.42,3.37,1.54c0.7,1.12,0.56,2.81,0,3.93c-0.42,0.98-2.1,0.7-2.38,1.82
		C173.79,294.88,174.91,297.96,174.07,302.31L174.07,302.31z"/>
	<path id="XMLID_102_" class="st0" d="M500.65,212.25c0.98-7.72,0.84-15.29,0-22.87c-0.28-1.96-2.24-4.07-2.53-6.17
		c-0.84-6.59,0.42-13.33-0.7-19.78c-0.42-2.38-2.24-4.35-3.09-6.59c-1.12-2.95-1.26-6.17-2.95-8.84c-1.12-1.96-3.79-3.23-5.33-4.77
		c-5.33-5.33-4.21-3.09-10.94-4.49c-1.4-0.28-2.24-1.82-3.65-2.24c-2.38-0.7-6.31-1.82-8.42-2.38c-1.82-0.42-2.95,0.84-4.91,0.42
		c-0.84-0.14-7.72-2.1-8-2.38c-2.24-0.98-2.95-2.81-5.05-4.07c-1.54-0.84-7.29-3.93-8.7-4.35c-1.82-0.56-2.95,0.28-4.77-0.42
		c-0.7-0.28-2.24-1.68-2.95-1.68c-2.24-0.42-4.91-0.56-7.29-0.56c-1.82,0-3.51,0.14-2.53,1.68c1.68,2.53,3.23,3.79,5.47,5.47
		c1.68,1.26,3.93,3.65,5.75,5.05c2.1,1.54,4.07,2.38,4.77,4.91c0.98,3.51,0.56,7.43,0.14,11.5c0,0.56-1.12,1.82-1.26,2.38
		c-0.14,4.77,0.28,6.73,0.56,11.5c0,1.12-2.1,0.98-2.24,2.1c-0.56,6.31-0.14,11.92,0,18.24c0.14,5.89-0.14,12.49,0,18.38
		c0,0.98,0.84,1.68,0.84,2.67c0,2.67,0.28,4.63,0.28,7.01c0,2.67-0.28,5.61,0,8.56c0.14,0.98,0.98,1.26,1.12,2.24
		c0.42,5.33-0.28,10.94,0.28,16.41c0.14,0.84,1.96,1.68,2.1,2.53c0.7,3.93-0.42,8.56,0.7,12.49c0.56,2.24,2.24,4.49,3.51,6.73
		c1.54,2.81,2.95,4.77,3.23,7.43c0.42,5.47-0.84,6.73-1.12,12.06c-0.28,6.31-2.1,13.05-1.96,19.64c0.14,2.53,2.24,5.47,3.37,7.58
		c0.7,1.26,0.84,3.79,1.68,5.47c0.84,1.54,2.38,1.4,1.96,2.67c-0.42,0.98-1.4,1.96-2.53,2.53c-2.24,0.98-5.05,1.12-5.19,2.38
		c-0.56,1.96,0.84,2.95,1.82,5.05c0.7,1.54,1.26,4.07,0.84,6.45c-0.28,1.68-1.26,3.37-1.54,4.35c-0.56,2.67-1.82,4.07-3.23,5.47
		c-0.98,0.98-2.38,1.26-1.82,3.09l0,0c0.42,1.4,1.68,0.7,3.23,0.7c2.67,0,5.47-0.56,7.86-0.98c1.12-0.28,0.84-1.12,1.96-1.54
		c1.54-0.7,3.51-0.7,5.05,0c0.98,0.42,0.7,0.7,1.54,1.4c0.56,0.56,1.68,0.42,2.38,0c1.12-0.84,0.28-0.84,1.54-1.4
		c1.96-0.98,4.49-0.84,6.73-1.4c3.51-0.84,6.73-1.26,9.82-3.23c3.09-1.96,6.45-5.47,7.72-8.98c2.1-5.33,2.38-12.06,2.67-16.83
		c0.14-0.84,1.54-1.82,1.54-2.81c0.56-5.19-0.14-10.38,0.56-15.43c0.28-1.82,1.82-2.81,2.1-4.63c0.7-5.33,0.14-10.1-0.14-15.57
		c-0.28-7.58-0.42-13.47-0.28-21.18c0.7-3.93,0.28-8.98,1.82-12.77c0.56-1.4,2.38-1.82,3.23-3.23c1.12-1.82,2.24-3.93,2.38-6.03
		c0.28-4.35-0.98-8.84-0.28-13.05C498.12,215.9,500.37,214.92,500.65,212.25z M480.73,217.3c-1.4,2.53-1.96,4.49-2.1,6.59
		c-0.7,5.89-2.38,5.05-4.07,9.54c-0.42,1.26-0.42,2.81-0.42,5.61c-0.14,10.38-0.28,20.62-0.42,31c-0.14,6.59-1.4,9.82-4.07,15.85
		c-1.54,2.95-2.38,4.77-2.38,8.14c0,3.93-0.84,5.75-2.38,9.26c-0.98,2.24-1.96,4.35-2.81,6.59c-1.12,2.53-2.1,3.51-2.95,3.23
		c-0.7-0.28-1.26-1.96-1.26-4.49c0-12.63,0.14-25.25,0.14-37.88c0.14-13.47,0.28-26.79,0.42-40.26c-0.14-2.95,0-3.51-1.96-5.61
		c-0.14-4.35-0.98-6.31-2.38-10.38c-1.68-3.23-1.54-5.61-1.54-9.4c-0.14-9.26-0.28-18.66-0.28-27.92c0-5.75,1.26-3.79,6.59-4.07l0,0
		c3.37-0.14,4.07-0.42,7.01,1.26c3.09,1.68,3.79,2.81,5.61,5.75c0.98,0.98,1.96,1.82,2.95,2.81c3.93,3.79,5.89,9.26,7.43,14.31
		C482.27,202.57,483.53,212.25,480.73,217.3z"/>
	<path id="XMLID_103_" class="st0" d="M239.02,333.32c-0.98-5.05-0.28-9.12,0-12.91c0.14-0.84,1.96,0,2.53-0.84
		c0.7-1.12,1.4-2.67,0.98-4.07c-0.28-0.7-0.84,0.28-1.26-0.42c-0.56-0.98-0.42-2.53,0.28-3.37c0.98-1.26,3.09-0.98,3.79-2.53
		c0.98-2.1-0.7-4.63,0-6.73c0.28-0.7,1.96,0.7,2.1,0c0.84-3.23-0.14-6.87,0.28-10.1c0.14-0.84,0.84-1.26,0.98-2.1
		c0.42-3.65,0.7-7.43,0-11.08c-0.42-2.24-2.24-3.93-2.53-6.17c-1.12-8.28-1.54-17.25-0.42-25.53c0.84-6.45,4.91-16.27,7.29-22.3
		c1.54-3.79,2.24-2.53,3.65-6.45c0.42-1.12,0.7-2.53,0.28-3.65c-0.42-1.4-2.24-2.53-1.96-4.07c0.28-1.82,2.53-1.82,3.23-3.65
		c0.84-2.38-0.84-5.33,0-7.72c0.98-2.81,4.35-4.49,5.19-7.43c0.84-2.81,0-7.15,0.7-9.96c1.54-5.47,3.37-8.98,6.03-14.03
		c1.54-2.95,4.35-5.47,5.47-8.7c1.12-3.09,1.12-7.01,1.54-9.54c-1.96-2.38-6.31,0.98-9.26-0.14c-1.4-0.56-1.4-2.95-2.95-3.51
		c-3.09-0.28-6.03-0.28-8.28,1.4c-2.95,2.24-2.95,4.91-4.21,8.42c-1.68,5.33-0.42,11.22-2.53,16.27c-0.84,1.96-4.35,2.53-6.03,4.07
		c-0.84,0.7-1.26,1.54-2.53,1.54c-1.12,0-2.24-0.42-2.53-1.54c-0.56-2.24,0.14-4.77,0-7.15c-0.14-1.82-1.12-3.79-0.56-5.61
		c0.28-0.98,2.38-0.56,2.53-1.54c0.98-10.52-0.28-21.04-0.14-31.28c0-3.51,0.98-3.09,4.49-3.09c5.89,0,15.29,0,22.02,0
		c11.92,0,23.85-0.56,35.63-0.14c1.82,0.14,4.07,0.84,4.21,2.53c0.28,3.51-2.1,7.01-3.79,10.1c-0.84,1.68-2.81,2.81-3.51,4.49
		c-1.12,2.95,0.14,6.59-1.12,9.54c-0.7,1.82-4.35,2.1-5.05,4.07c-0.98,2.67,0.7,5.75-0.28,8.28c-0.56,1.26-3.23,0.56-3.65,1.82
		c-1.54,4.35-0.7,9.4-1.82,13.89c-0.7,2.53-2.53,4.21-2.95,6.73c-0.98,6.87,0.56,14.03,0,20.9c-0.14,1.54-1.68,2.53-2.1,4.07
		c-0.98,3.37-1.68,7.15-2.81,10.52c-0.56,1.4-2.38,2.24-2.81,3.65c-0.56,2.24,0.84,4.63,0,6.73c-1.12,2.67-4.91,3.65-5.61,6.45
		c-1.68,7.86,0.98,16.13-0.28,23.99c-0.56,3.51-3.65,6.31-4.35,9.82c-0.84,4.49,0.56,9.96-0.56,14.45
		c-1.12,4.35-4.21,8.14-5.75,12.2c-0.42,4.07-5.33,7.86-2.67,10.94c3.23,0.42,8.56,1.12,12.34-0.56c1.68-0.84-0.28-4.35,1.26-5.61
		c4.63-3.51,9.82-4.77,15.01-7.43c2.95-1.54,6.73-2.95,9.26-4.91c1.4-0.98,1.54-3.51,3.09-4.07c0.98-0.28,1.12,1.96,2.1,2.1
		c3.51,0.56,6.45-0.84,9.82,0c1.4,0.42,1.26,2.1,1.68,3.51c0.28,1.26,0.84,2.53,0.14,3.51c-0.42,0.56-1.82-0.14-2.1,0.56
		c-0.56,1.4-0.42,3.09,0,4.63c0.28,1.12,1.4,1.82,1.4,3.09c0.56,6.31,0.7,12.63,0,18.8c-0.14,1.26-0.84,2.67-2.24,2.81
		c-8.84-0.42-17.11,0.28-25.95,0.28c-0.98-0.14-0.42-1.68-1.26-2.1c-2.24-0.98-6.45-1.12-8.84-0.56c-2.81,0.7-3.09,2.95-5.89,3.51
		c-5.19,0.98-11.08,0-16.27,0.84c-1.82,0.28-3.23,1.82-5.05,2.24C244.21,335,240.28,335.56,239.02,333.32L239.02,333.32z"/>
	<path id="XMLID_104_" class="st0" d="M101.69,347.9c-3.79,1.4-8.28,0-12.34,0.14c-1.26,0-3.37,0.98-4.49,0.7
		c-1.26-0.42-3.37-2.95-2.53-4.07c3.23-4.35,9.54-4.77,12.49-9.26c1.68-2.67,0.14-6.17,0.84-9.26c0.28-0.98,1.82-0.84,2.38-1.68
		c0.42-0.7,0.56-1.82,0-2.38c-1.12-1.4-1.96,1.54-2.38-2.53c-0.42-3.65-0.56-7.43-0.14-11.08c0.28-2.38,1.96-1.82,2.24-3.09
		c0.56-2.24-0.7-3.93,0-6.31c0.28-0.98,2.1-0.7,2.67-1.68c0.56-0.84,0.56-2.24,0-3.09c-1.12-1.68-4.21-1.68-4.63-3.79
		c-0.7-3.79-0.28-7.86-0.28-11.5c0.14-3.93-0.14-8,0.14-12.06c0-0.7,1.82-0.7,1.96-1.4c0.56-1.4,0.14-2.95,0-4.35
		c-0.14-1.12,0.14-3.51,0.14-4.77c-0.14-1.82-0.84-2.53-0.14-4.07c0.56-1.12,2.53-0.42,2.67-1.68c0.98-6.59-0.98-13.33-0.28-19.92
		c0.14-1.12,1.82-0.98,2.24-1.96c0.42-1.68,0.56-3.79-0.14-5.33c-0.42-0.84-2.1-0.84-2.1-1.68c-0.7-9.68,0.56-18.8-0.14-28.34
		c-0.14-0.84-2.24,0.42-2.38-3.51c0-4.07-0.42-8-0.42-10.94c0-2.38,5.05-2.38,5.05-4.63c-0.14-3.51,0.42-7.58-0.28-11.08
		c-0.28-1.12-1.82-0.98-2.24-2.1c-0.42-0.98,0-1.96,0.42-3.09c0.56-1.26,1.96-2.1,2.24-3.37c0.56-2.38,0.56-5.05,0-7.43
		c-0.14-0.84-1.54-1.54-1.96-2.24c-0.7-1.26-0.42-2.53-1.26-3.65c-0.7-0.84-2.53-0.28-3.37-0.98c-1.96-1.68-3.23-3.65-4.91-5.19
		c-1.54-1.54-3.79-2.53-5.05-4.77c-0.84-1.4,0.14-3.79,1.4-4.77c0.98-0.7,2.53-0.56,3.65,0c0.84,0.42,0.84,2.38,1.82,2.53
		c4.35,0.56,8.7-1.26,12.91-0.42c1.82,0.42,1.96,2.81,3.65,3.51c1.12,0.56,3.23-0.56,4.35,0.28c1.54,1.12,2.95,3.23,4.07,4.49
		c1.54,1.54,2.95,2.38,3.79,4.63c0.98,2.81,0.56,5.89,0.56,8.84c0,2.67,0.42,5.33,0.14,8c-0.14,0.84-1.82,0.42-2.1,1.4
		c-0.42,1.54-0.14,3.23,0.7,4.63c0.56,0.98,2.1,0.56,2.53,1.54c0.84,2.53,0.98,5.75,0.28,8.28c-0.28,0.98-2.1,0.28-2.24,1.4
		c-0.7,12.63-0.98,25.53,0.28,38.16c0.28,2.1,3.65,2.95,3.79,5.05c1.26,11.92,0.14,24.13-0.42,36.05c0,1.68-0.98,3.93-1.68,5.19
		c-0.84,1.4-0.28,2.81-0.28,4.49c0,1.96-0.14,4.21,0.14,6.31c0.14,1.12,2.53,2.24,2.53,3.51c-0.28,3.23,0.28,4.77,0.42,8
		c0.14,1.54-2.81,2.53-3.65,3.79c-0.7,0.98-0.98,2.67-0.56,3.65c0.56,0.98,1.4,0.42,1.68,1.54c0.42,1.4,0.42,2.67-0.28,3.93
		c-0.42,0.84-2.24,0.7-2.38,1.68c-0.42,2.67,1.12,5.47,0.7,8.14c-0.14,0.84-1.96,0.56-1.96,1.4c-0.56,4.07,0.7,8.14,0,12.2
		c-0.28,1.54-2.53,2.24-2.67,3.65c0,0.84,1.96,0.28,2.38,0.98c0.7,1.26-0.98,3.65,0.28,4.07c4.35,1.26,9.68,0.98,14.03-0.14
		c2.53-0.7,3.51-4.07,6.03-4.35c3.09-0.28,5.33,1.68,8.28,2.24c3.93,0.7,8.28,0.84,12.2-0.14c2.24-0.56,3.65-3.09,6.03-3.37
		c10.24-1.4,19.78-0.56,30.16-0.56c9.82,0,22.3-0.56,29.6,0.28c4.21,0.14-0.28,14.73,1.12,22.59c0.28,1.68,1.82,2.67,2.67,4.21
		c1.4,2.53,1.96,3.79-1.68,3.79c-6.73,0-13.61,0.42-20.9,0.14c-1.4,0-1.4-2.81-2.67-3.37c-1.4-0.56-3.23,0.7-4.77,0.28
		c-2.24-0.56-4.91-2.81-7.29-3.09c-6.31-0.7-12.63,0.84-18.8,0c-1.4-0.14-1.54-2.95-3.09-3.09c-14.59-1.12-28.62,0.42-43.21-0.28
		c-3.09-0.14-3.37-1.26-5.33-1.82c-2.81-0.84-7.86-1.12-10.52,0.14C106.88,341.73,106.88,346.08,101.69,347.9L101.69,347.9z"/>
	<path id="XMLID_108_" class="st0" d="M357.28,261.77c0-6.03-0.28-11.92-0.56-17.96c0-1.68-1.26-4.77-1.54-7.01
		c-0.56-3.65-0.84-7.15-0.98-10.94c-0.14-4.07,0.7-8,0-12.06c-0.42-2.53-3.09-5.05-3.65-7.58c-0.42-2.1,1.26-4.35,0.7-6.31
		c-0.28-1.12-1.68-0.84-2.1-1.96c-0.98-2.67-1.96-5.19-2.67-7.86c-0.84-3.79-0.98-7.86-2.1-11.5c-1.12-4.21-3.23-8.14-4.63-12.34
		c-1.12-3.37-1.68-6.73-2.53-10.1c-0.56-2.53,0.42-5.89-0.56-8.28c-1.82-4.63-5.19-7.29-7.01-11.78c-1.12-2.53-0.28-5.75-1.12-8.42
		c-0.42-1.4-2.24-2.38-3.65-2.24c-1.96,0.14-3.93,0.84-4.77,2.67c-1.12,2.38,0.84,5.61-0.28,8c-1.4,3.09-5.05,2.95-6.45,5.89
		c-0.98,2.1,0.7,5.75-0.14,8c-0.98,2.95-2.95,5.33-4.35,8.14c-0.98,1.96-1.4,4.35-2.38,6.17c-0.84,1.54-2.1,2.53-2.38,4.21
		c-0.28,1.96,1.12,3.51,0.56,5.33c-0.42,1.4-1.26,1.96-2.1,2.81c-1.4,1.4-2.67,3.93-3.23,6.31c-1.12,4.35-0.14,9.68-1.26,14.03
		c-0.42,1.82-3.37,2.24-4.07,4.07c-0.84,2.67,0.84,5.75,0,8.42c-0.7,2.53-3.65,4.49-4.35,7.15c-1.12,4.07-1.12,8.98-0.28,13.19
		c0.28,1.4,2.81,0.7,2.95,1.96c0.14,1.12-2.67,0.56-2.95,1.68c-0.84,2.81,0.56,5.89-0.28,8.7c-0.7,2.24-1.96,1.68-2.53,3.93
		c-0.28,1.68,0.42,4.77,0.42,6.45c0.14,3.23-0.56,5.61-0.7,8.98c0,1.4,1.12,3.65,0.28,4.77c-1.26,2.1-4.77,1.96-6.03,4.07
		c-1.12,1.96,0.42,5.33-0.7,7.43c-1.4,2.67-5.47,2.53-5.75,5.61c-0.28,2.95,0,7.86,2.95,8l0,0c2.67,0.14,5.05-1.54,7.43-2.67
		c3.65-1.82,7.15-3.65,11.08-4.49c3.65-0.7,7.43,0.56,11.22,0.42c1.26,0,2.38,0,3.51-0.56c1.82-0.98,2.24-1.68,2.81-3.79
		c0.84-3.09-4.63-3.93-6.03-6.87c-1.26-2.67,0.56-5.89,0.14-8.84c-0.14-0.98-1.26-1.82-1.26-2.81s1.12-2.81,1.96-2.38
		c6.31,3.09,14.45,6.87,19.64,11.08c2.38,1.96,3.23,3.37,3.23,6.59c0,2.1-0.56,4.63-1.4,6.87c-1.26,2.95-2.53,7.15-4.35,9.82
		c-2.81,3.79-5.61,6.87-5.89,11.5c-0.28,4.77,6.73,6.59,8.98,10.8c1.26,2.38,0,7.01,0.7,9.68c1.4,5.33,3.65,8.7,4.49,14.03
		c0.7,4.63-0.56,7.86,0.14,12.49c0.14,1.12,2.81,0.56,3.79,0.14c1.4-0.7,1.82-0.42,2.24-1.96c0.84-2.67-0.28-5.61,0.28-8.42
		c0.28-1.12,1.68-1.54,1.96-2.67c0.56-2.1-0.42-4.35,0.14-6.31c0.56-1.96,1.82-4.77,2.67-6.59c1.26-2.67,2.38-4.35,2.53-7.15
		c0.14-3.37-0.84-6.03,0-8.7c0.42-1.26,2.81-2.1,3.23-3.23c0.84-1.82,0.84-4.07,1.4-6.03c0.84-3.79,1.96-5.75,3.37-9.4
		c0.42-0.98,1.54-1.54,1.68-2.53C357.28,280.01,357.28,270.47,357.28,261.77z M334.83,250.83c0,1.4-3.65,1.4-4.63,0.7
		c-1.96-1.4-3.09-3.09-5.61-3.79c-0.98-0.28-0.98-1.96-1.96-2.24c-2.24-0.7-4.91-0.98-7.29-0.98c-1.54,0-3.65,0.56-5.19,0.28
		c-0.28,0,0-0.56,0-0.84l0,0c0-2.95-0.14-5.89-0.14-8.84c0-2.53,0-5.19,0.28-7.72c0.14-1.68,1.68-2.95,1.82-4.63
		c0.28-2.81-1.4-6.17-0.56-8.84c0.28-1.12,3.09,0,3.65-0.84c0.14-0.28,0.56-2.1,1.26-3.51c0.42-0.84,1.26-1.68,1.26-1.96
		c0-0.56,0-4.07,0.28-7.01c0.28-1.82,0.42-3.23,0.7-3.23s0.56,1.4,1.54,2.67c1.12,1.4,1.4,2.81,2.38,4.35
		c0.56,0.84,1.12,1.96,2.1,2.24c1.12,0.42,2.53-0.14,3.79,0.28c0.84,0.42,1.12,1.68,1.82,2.24c0.56,0.42,1.68-0.28,1.82,0.28
		c0.56,3.09,0.14,7.15,0.56,10.1c0.14,0.7,1.68,0.42,1.82,1.12c0.28,5.33,0.42,10.66,0.42,15.99
		C335.26,241.43,335.11,246.06,334.83,250.83z"/>
	<path id="XMLID_114_" class="st0" d="M432.89,296.28c-0.14-2.24-0.14-4.63-1.54-6.31c-1.12-1.26-4.35,0-4.77-1.54
		c-0.56-2.24,2.53-4.07,2.67-6.31c-0.84-6.17-1.68-11.64-1.82-17.68c-0.14-7.15-1.68-3.51-3.93-6.31c-1.4-1.68-1.82-3.23-2.1-5.33
		c-0.7-6.45,0.28-13.47-0.7-19.92c-0.42-2.81-1.82-5.61-3.65-7.86c-0.7-0.84-1.96,0.42-2.38-0.56c-0.84-1.54,1.68-2.67,0.7-4.07
		c-2.1-3.51-6.59-6.17-9.96-8.42c-0.98-0.7-2.81,0.84-3.65,0c-0.84-0.84-0.84-3.51,0-4.35c6.03-0.84,9.12-3.65,12.06-7.15
		c3.93-4.63,5.89-9.82,8-15.57c0.98-2.67-0.28-5.75,0-8.56c0.56-5.19,3.23-9.82,2.38-15.01c-1.26-7.43-5.05-14.17-9.26-20.34
		c-2.38-3.51-6.03-6.59-9.82-8.42c-3.23-1.54-5.75-0.28-9.12-1.26c-3.93-1.12-7.01-3.37-10.94-4.07c-3.09-0.7-6.31,0.7-9.4,0
		c-1.96-0.42-2.24-2.67-4.21-2.95c-1.4-0.14-2.67,1.68-4.07,1.82c-9.4,0.84-17.11-0.98-26.37,0.14c-1.4,0.14-0.98,1.68,0.14,2.53
		c1.68,1.26,4.35,0.56,6.31,1.4c3.51,1.54,6.17,3.51,8.7,6.31c2.1,2.24,2.95,4.77,4.91,8.42c0.84,1.4,3.09-1.4,4.77-1.54
		c2.1-0.28,3.51-0.42,4.77,1.26c1.12,1.4-1.26,3.37-2.67,4.63c-2.81,2.53-4.77,3.93-7.15,5.61c-1.68,1.12-4.63,2.24-5.89,4.49
		c-2.81,5.05,0.56,10.8,1.54,16.41c0.42,2.1,0.84,4.07,1.26,6.17c1.54,6.59,0.98,12.2,1.96,18.94c0.28,2.24,1.82,4.07,2.1,6.31
		c0.28,2.67-0.14,4.49,0.14,7.15c0.14,1.12,1.12,2.24,1.4,3.37c1.26,4.77,2.38,10.8,2.67,15.71c0.56,16.27-0.42,32.12,0.42,48.26
		c0.14,1.54,2.24,2.1,2.53,3.51c0.42,2.24-0.98,4.77-1.82,7.01c-3.09,8.84-6.73,15.57-8.7,23.01l0,0c-0.84,3.23,1.68,4.49,4.63,6.45
		c2.95,1.82,6.31,4.35,9.54,7.01c5.33,4.35,9.12,12.49,12.63,20.34c1.82-1.96,0.56-10.8,1.54-16.27c0.28-1.12,1.4-1.96,1.54-3.09
		c0.42-4.21,0.56-8.42,0-12.63c-0.14-1.54-1.68-2.67-2.1-4.21c-0.28-1.12-0.28-2.53,0-3.65c0.28-1.4,1.4-2.67,1.54-4.21
		c0.42-4.35,0.7-8.84,0-13.05c-0.28-1.68-2.81-2.53-2.67-4.21c0.14-1.4,3.09-1.26,3.09-2.67c0.28-3.93-1.12-7.58-1.54-11.5
		c-1.12-8.7-1.68-17.39-2.67-26.23c-0.28-3.09-1.54-6.31-0.98-9.4c1.68-4.21,3.09-8.56,4.77-12.06c0.7-0.98,1.82,0.98,2.53,1.96
		c2.53,3.23,5.89,7.29,6.73,11.36c0.84,5.05-1.82,9.4-1.26,14.45c0.14,1.4,2.38,1.26,2.95,2.53c2.53,6.59,4.49,13.47,5.75,20.34
		c1.4,8,1.82,15.99,2.1,24.13c0.14,3.51,0,7.15-0.98,10.52c-1.4,4.77-4.35,8.56-5.89,13.19c-1.54,4.91-2.1,6.31,3.09,6.31
		c1.96,0,4.35,0.14,6.03,0.84c4.21,2.1,5.89,6.87,9.96,9.4c0.84,0.56,1.96,1.26,3.23,1.96c5.61,3.23,6.31,0.98,7.43-3.93
		c1.54-6.59,1.96-12.49,2.95-18.94c0.56-3.23,0.42-6.59,0.56-9.96C432.75,305.68,433.17,300.91,432.89,296.28z M400.49,187.84
		c-0.28,2.24-1.96,4.07-2.95,5.89c-0.7,1.26-0.42,4.35-2.1,6.17c-2.53,2.53-5.89,5.19-8.28,5.19c-5.19,0-5.33-0.7-5.75-4.35
		c-0.28-2.95,0.42-9.68,0.42-13.19c0-4.35-0.28-9.26-0.28-13.61c0-4.21,0.28-7.86,0.28-11.92c0-3.23-0.28-6.45-0.28-9.54l0,0
		c0-3.79,0-4.21,4.35-3.23c2.38,0.56,3.93,1.82,5.89,4.77c1.12,1.68,3.65,3.79,5.89,6.17c3.09,3.51,5.89,7.29,5.89,9.96
		c0,1.82-0.7,10.1-1.54,10.8C399.93,182.65,400.91,185.04,400.49,187.84z"/>
	<path id="XMLID_117_" class="st0" d="M505.42,131.17c0.56-0.28,1.12-0.56,1.4-0.98c0.28-0.42,0.56-0.98,0.56-1.68
		c0-0.98-0.42-1.26-1.12-1.82c-0.7-0.42-1.82-0.42-3.23-0.42h-3.79v8.98h2.95v-2.95h0.14l1.68,2.95h3.37L505.42,131.17z
		 M503.87,129.63c-0.28,0.14-0.56,0.28-0.98,0.28h-0.7v-2.38h0.42c0.56,0,0.98,0.14,1.26,0.28c0.28,0.14,0.42,0.42,0.42,0.84
		C504.15,129.06,504.01,129.35,503.87,129.63z"/>
	<path id="XMLID_118_" class="st0" d="M502.89,121.77L502.89,121.77L502.89,121.77z"/>
	<path id="XMLID_121_" class="st0" d="M511.31,127.24c-0.42-1.12-1.12-2.1-1.96-2.95c-0.84-0.84-1.82-1.54-2.95-1.96
		c-1.12-0.42-2.24-0.7-3.51-0.7c-1.26,0-2.38,0.28-3.51,0.7c-1.12,0.42-2.1,1.12-2.81,1.96c-0.84,0.84-1.54,1.82-1.96,2.95
		c-0.42,1.12-0.7,2.24-0.7,3.51s0.28,2.38,0.7,3.37c0.42,1.12,1.12,2.1,1.96,2.95s1.82,1.54,2.95,1.96c1.12,0.42,2.24,0.7,3.37,0.7
		c1.12,0,2.38-0.28,3.51-0.7c1.12-0.42,2.1-1.12,2.95-1.96c0.84-0.84,1.54-1.82,1.96-2.81c0.42-1.12,0.7-2.24,0.7-3.51
		S511.73,128.36,511.31,127.24z M509.63,133.55c-0.28,0.84-0.84,1.68-1.54,2.24c-0.7,0.7-1.54,1.26-2.38,1.54
		c-0.84,0.42-1.82,0.56-2.81,0.56s-1.82-0.14-2.81-0.56c-0.84-0.42-1.68-0.84-2.38-1.54c-0.7-0.7-1.26-1.4-1.54-2.38
		c-0.42-0.84-0.56-1.82-0.56-2.81c0-0.98,0.14-1.82,0.56-2.81c0.42-0.84,0.84-1.68,1.54-2.38c0.7-0.7,1.4-1.26,2.24-1.54
		c0.84-0.28,1.82-0.56,2.81-0.56s1.96,0.14,2.81,0.56c0.84,0.42,1.68,0.84,2.38,1.54c0.7,0.7,1.12,1.4,1.54,2.38
		c0.42,0.84,0.56,1.82,0.56,2.81l0,0C510.19,131.73,510.05,132.71,509.63,133.55z"/>
</g>
</svg>
